<?xml version="1.0" encoding="UTF-8" standalone="no"?><!DOCTYPE svg PUBLIC "-//W3C//DTD SVG 1.1//EN" "http://www.w3.org/Graphics/SVG/1.1/DTD/svg11.dtd"><svg width="100%" height="100%" viewBox="0 0 800 400" version="1.1" xmlns="http://www.w3.org/2000/svg" xmlns:xlink="http://www.w3.org/1999/xlink" xml:space="preserve" xmlns:serif="http://www.serif.com/" style="fill-rule:evenodd;clip-rule:evenodd;stroke-linejoin:round;stroke-miterlimit:2;"><rect id="box" x="0" y="0" width="800" height="400" style="fill:none;"/><g id="box1" serif:id="box"><g><g><g><path d="M377.3,316.4l0,-142.7l26.9,0l0,142.7l-26.9,0Z" style="fill:#2a255a;fill-rule:nonzero;"/><path d="M442.1,222.4l0,47.5c0,8 1.6,13.7 4.8,17.1c3.2,3.4 8.4,5.2 15.6,5.2c7.1,0 12.3,-1.8 15.6,-5.2c3.2,-3.5 4.8,-9.2 4.8,-17.1l0,-47.5l27,0l0,47.5c0,15.9 -3.8,27.6 -11.5,35.1c-7.7,7.5 -19.5,11.3 -35.5,11.3c-16.4,0 -28.4,-3.7 -36.1,-11.2c-7.7,-7.5 -11.5,-19.2 -11.5,-35.1l0,-47.5l26.8,0l-0,-0.1Z" style="fill:#2a255a;fill-rule:nonzero;"/><path d="M251,316.3l0,-47.5c0,-8 -1.6,-13.7 -4.8,-17.1c-3.2,-3.4 -8.4,-5.2 -15.6,-5.2c-7.1,0 -12.3,1.7 -15.5,5.2c-3.2,3.5 -4.8,9.2 -4.8,17.1l0,47.5l-27,0l0,-47.5c0,-15.9 3.8,-27.6 11.5,-35.1c7.6,-7.5 19.5,-11.3 35.6,-11.3c16.3,0 28.4,3.7 36.1,11.2c7.7,7.5 11.5,19.2 11.5,35.2l0,47.5l-27,0Z" style="fill:#2a255a;fill-rule:nonzero;"/><path d="M364.6,248.9l-28.5,0c-8,0 -13.7,1.6 -17.1,4.8c-3.4,3.2 -5.2,8.4 -5.2,15.6c0,7.1 1.7,12.3 5.2,15.5c3.5,3.2 9.1,4.8 17.1,4.8l28.5,0l0,27l-28.5,0c-15.9,0 -27.6,-3.8 -35.1,-11.5c-7.5,-7.6 -11.3,-19.5 -11.3,-35.5c0,-16.4 3.7,-28.4 11.2,-36.1c7.5,-7.7 19.2,-11.5 35.2,-11.5l28.5,0l0,26.9Z" style="fill:#2a255a;fill-rule:nonzero;"/><path d="M593,174l0,48.1l-25.7,0c-15.9,0 -27.7,3.8 -35.2,11.5c-7.5,7.7 -11.2,19.7 -11.2,36.1c0,16 3.8,27.9 11.3,35.5c7.5,7.6 19.2,11.5 35.1,11.5l52.7,0l0,-142.7l-27,0Zm-25.7,115.7c-7.9,0 -13.6,-1.6 -17.1,-4.8c-3.5,-3.2 -5.2,-8.4 -5.2,-15.5c0,-7.2 1.7,-12.4 5.1,-15.6c3.5,-3.2 9.1,-4.8 17.1,-4.8l25.8,0l0,40.7l-25.7,0Z" style="fill:#2a255a;fill-rule:nonzero;"/><path d="M676.7,248.9l28.5,0l0,-26.8l-28.5,0c-16,0 -27.7,3.8 -35.1,11.5c-7.5,7.7 -11.3,19.7 -11.3,36.1c0,16 3.8,27.9 11.3,35.5c7.5,7.6 19.2,11.5 35.1,11.5l28.5,0l0,-27l-28.5,0c-7.9,0 -13.6,-1.6 -17.1,-4.8c-0.6,-0.6 -1.2,-1.3 -1.7,-2l46.8,0l0,-26.8l-47,0c0.6,-0.8 1.2,-1.6 1.9,-2.3c3.4,-3.3 9.1,-4.9 17.1,-4.9Z" style="fill:#2a255a;fill-rule:nonzero;"/><rect x="142.8" y="222.4" width="26.9" height="93.9" style="fill:#2a255a;"/></g></g><g><path d="M178.2,188.7l22.1,-22.1c-6.5,-4.5 -12.5,-9.4 -18.4,-14.5c-1.2,-1 -2.3,-2 -3.4,-3c-2.9,3.1 -5.8,6.1 -8.8,9.1c-3,3 -6,5.9 -9.1,8.8c1,1.1 2,2.3 3,3.4c5.2,5.8 10.2,11.8 14.6,18.3Z" style="fill:#2b3082;fill-rule:nonzero;"/><path d="M178.2,100.5c-4.5,6.5 -9.4,12.5 -14.5,18.4c-1,1.1 -2,2.3 -3,3.4c3.1,2.9 6.1,5.8 9.1,8.8c3,3 5.9,6 8.8,9.1c1.2,-1 2.3,-2 3.4,-3c5.9,-5.1 11.9,-10.1 18.4,-14.6l-22.2,-22.1Z" style="fill:#37a7df;fill-rule:nonzero;"/><path d="M164.8,153.2c2.9,-2.9 5.9,-5.8 8.9,-8.6c-3,-2.8 -6,-5.7 -8.9,-8.6c-2.9,-2.9 -5.8,-5.9 -8.6,-8.9c-2.8,3 -5.7,6 -8.6,8.9c-2.9,2.9 -5.9,5.8 -8.9,8.6c3,2.8 6,5.7 8.9,8.6c2.9,2.9 5.8,5.9 8.6,8.9c2.8,-3 5.7,-6 8.6,-8.9Z" style="fill:#1d70b7;fill-rule:nonzero;"/><path d="M142.7,131.1c3,-3 6,-5.9 9.1,-8.8c-1,-1.1 -2,-2.3 -3,-3.4c-5.1,-5.9 -10.1,-11.9 -14.6,-18.4l-22.1,22.1c6.5,4.5 12.5,9.4 18.4,14.6c1.2,1 2.3,2 3.4,3c2.8,-3.1 5.8,-6.2 8.8,-9.1Z" style="fill:#37a7df;fill-rule:nonzero;"/><path d="M134.2,188.7c4.5,-6.5 9.4,-12.5 14.5,-18.4c1,-1.1 2,-2.2 3,-3.4c-3.1,-2.9 -6.1,-5.8 -9.1,-8.8c-3,-3 -5.9,-6 -8.8,-9.1c-1.1,1 -2.3,2 -3.4,3c-5.9,5.1 -11.9,10.1 -18.4,14.5l22.2,22.2Z" style="fill:#2b3082;fill-rule:nonzero;"/><path d="M214.3,136.6l-13.9,-13.9c-4.5,6.5 -9.4,12.5 -14.6,18.4c-1,1.2 -2.1,2.4 -3.2,3.6c1.1,1.2 2.2,2.4 3.2,3.6c5.1,5.9 10.1,11.9 14.6,18.4l13.9,-13.9c4.5,-4.6 4.5,-11.8 0,-16.2Z" style="fill:#1d70b7;fill-rule:nonzero;"/><path d="M159.8,174.3c-1.2,-1.1 -2.4,-2.1 -3.6,-3.2c-1.2,1.1 -2.4,2.1 -3.6,3.2c-5.9,5.1 -11.9,10.1 -18.4,14.5l13.9,13.9c4.4,4.4 11.6,4.4 16.1,0l13.9,-13.9c-6.4,-4.5 -12.4,-9.4 -18.3,-14.5Z" style="fill:#2a255a;fill-rule:nonzero;"/><path d="M126.6,148.2c1.1,-1.2 2.1,-2.4 3.2,-3.6c-1.1,-1.2 -2.1,-2.4 -3.2,-3.6c-5.1,-5.9 -10.1,-11.9 -14.6,-18.4l-13.9,13.9c-4.4,4.4 -4.4,11.6 -0,16.1l13.9,13.9c4.5,-6.4 9.5,-12.4 14.6,-18.3Z" style="fill:#1d70b7;fill-rule:nonzero;"/><path d="M152.6,115c1.2,1.1 2.4,2.1 3.6,3.2c1.2,-1.1 2.4,-2.2 3.6,-3.2c5.9,-5.1 11.9,-10.1 18.4,-14.5l-13.9,-13.9c-4.4,-4.4 -11.6,-4.4 -16.1,0l-13.9,13.9c6.4,4.4 12.4,9.4 18.3,14.5Z" style="fill:#82ccec;fill-rule:nonzero;"/></g></g></g></svg>