<?xml version="1.0" encoding="UTF-8" standalone="no"?><!DOCTYPE svg PUBLIC "-//W3C//DTD SVG 1.1//EN" "http://www.w3.org/Graphics/SVG/1.1/DTD/svg11.dtd"><svg width="100%" height="100%" viewBox="0 0 55 55" version="1.1" xmlns="http://www.w3.org/2000/svg" xmlns:xlink="http://www.w3.org/1999/xlink" xml:space="preserve" xmlns:serif="http://www.serif.com/" style="fill-rule:evenodd;clip-rule:evenodd;stroke-linejoin:round;stroke-miterlimit:2;"><path d="M3.2,32l-2,2c0,0 1.6,11.3 14.5,17.8c8.7,4.4 16.6,3.3 21.2,1.9c2.3,-0.7 5,-2.4 6.8,-4c4.2,-3.7 11.7,-11.9 10.2,-23.7c-1.5,-12.3 -31,3.3 -31,3.3l-19.7,2.7Z" style="fill:#ffb450;fill-rule:nonzero;"/><path d="M32,4l3.4,-1.8l1.4,4.5c0,0 -0.4,11.3 13.2,11.2l-10.7,3.7l-7.3,-17.6Z" style="fill:#ffb450;fill-rule:nonzero;"/><path d="M44.7,18.3c-4.9,-0.7 -8.9,-4.6 -9.6,-9.4c-0.2,-1.7 -0.1,-3.3 0.3,-4.8c0.4,-1.5 -0.5,-3 -2,-3.3c-3.1,-0.8 -6.4,-1 -9.9,-0.6c-12.4,1.4 -22.5,11.7 -23.4,24.2c-1.2,16.2 12.4,30.2 28.9,28.4c12,-1.3 23.1,-10.8 24.7,-23.2c0.4,-3.4 0.1,-6.6 -0.6,-9.7c-0.4,-1.5 -1.9,-2.4 -3.4,-2c-1.6,0.5 -3.3,0.6 -5,0.4Z" style="fill:#ffd18d;fill-rule:nonzero;"/><path d="M15.3,19.2c2,0 2.7,-1.4 3.3,-2.7c-0.8,-1.8 -2.2,-4 -2.8,-3.9c-2.7,0.5 -3.2,1.4 -3.5,3.3c-1,2.4 1,4.2 3,3.3Z" style="fill:#2b1400;fill-rule:nonzero;"/><path d="M6.5,36.4c1.7,-0.2 3.1,-1.7 3,-3.5c0,-1.1 -0.8,-1.9 -3,-2.2c-1.5,-0.5 -2.4,1.6 -2.6,2.3c0.6,2 1.3,3.2 2.6,3.4Z" style="fill:#2b1400;fill-rule:nonzero;"/><path d="M27.2,47.2c1.7,-0.6 3.3,-1.4 3.6,-3.2c-0.7,-1.5 -2.2,-3.2 -3.2,-2.2c-2.6,-0.5 -3.4,0.4 -3.7,2.1c0.4,2.1 1.4,3.4 3.3,3.3Z" style="fill:#2b1400;fill-rule:nonzero;"/><path d="M29,20.9c1.1,0.4 2,-1 1.6,-2.2c0.4,-0.9 -0.9,-1.8 -1.5,-1.8c-1.9,-0.2 -2.1,0.5 -2,1.7c-0.3,1.4 0.8,2.4 1.9,2.3Z" style="fill:#2b1400;fill-rule:nonzero;"/><path d="M32.3,7c1.2,-0.3 2.5,-1.2 2,-2.5c-0.2,-1.2 -1.1,-1.8 -1.7,-2c-1.8,0.1 -2,0.6 -2.2,2c-0.4,0.9 0.3,1.9 1.9,2.5Z" style="fill:#2b1400;fill-rule:nonzero;"/><path d="M18,50c1.7,-0.3 2.2,-0.9 2.6,-2.4c-0.1,-0.8 -1.3,-2 -2.1,-1.8c-1.5,0.2 -2,0.4 -2,1.8c-0.8,1.5 0.1,2.2 1.5,2.4Z" style="fill:#2b1400;fill-rule:nonzero;"/><path d="M47.1,34.2c1.6,0.3 3.5,-1.2 4.3,-3.2c-0.3,-1.8 -1.8,-3.7 -4.5,-4c-1.9,1.2 -3.8,2.4 -3.4,3.4c0.6,3 1.2,4.6 3.6,3.8Z" style="fill:#2b1400;fill-rule:nonzero;"/><path d="M15,18.7c2,0 2.7,-1.4 3.3,-2.7c-0.8,-1.8 -2.2,-4 -2.8,-3.9c-2.7,0.5 -3.2,1.4 -3.5,3.3c-1,2.4 1,4.2 3,3.3Z" style="fill:#442300;fill-rule:nonzero;"/><path d="M6.2,35.9c1.7,-0.2 3.1,-1.7 3,-3.5c0,-1.1 -0.8,-1.9 -3,-2.2c-1.5,-0.5 -2.4,1.6 -2.6,2.3c0.6,2 1.3,3.3 2.6,3.4Z" style="fill:#442300;fill-rule:nonzero;"/><path d="M26.9,46.7c1.7,-0.6 3.3,-1.4 3.6,-3.2c-0.7,-1.5 -2.2,-3.2 -3.2,-2.2c-2.6,-0.5 -3.4,0.4 -3.7,2.1c0.4,2.1 1.4,3.4 3.3,3.3Z" style="fill:#442300;fill-rule:nonzero;"/><path d="M28.7,20.4c1.1,0.4 2,-1 1.6,-2.2c0.4,-0.9 -0.9,-1.8 -1.5,-1.8c-1.9,-0.2 -2.1,0.5 -2,1.7c-0.3,1.4 0.8,2.4 1.9,2.3Z" style="fill:#442300;fill-rule:nonzero;"/><path d="M32,6.5c1.2,-0.3 2.5,-1.2 2,-2.5c-0.2,-1.2 -1.1,-1.8 -1.7,-2c-1.8,0.1 -2,0.6 -2.2,2c-0.4,1 0.3,1.9 1.9,2.5Z" style="fill:#442300;fill-rule:nonzero;"/><path d="M17.7,49.5c1.7,-0.3 2.2,-0.9 2.6,-2.4c-0.1,-0.8 -1.3,-2 -2.1,-1.8c-1.5,0.2 -2,0.4 -2,1.8c-0.8,1.5 0.1,2.3 1.5,2.4Z" style="fill:#442300;fill-rule:nonzero;"/><path d="M46.8,33.7c1.6,0.3 3.5,-1.2 4.3,-3.2c-0.3,-1.8 -1.8,-3.7 -4.5,-4c-1.9,1.2 -3.8,2.4 -3.4,3.4c0.6,3 1.2,4.6 3.6,3.8Z" style="fill:#442300;fill-rule:nonzero;"/><path d="M40.8,7.7l-0.7,1c-0,0 0.9,1.6 2.1,1.6c1.2,0 2.2,-0.3 2.2,-0.3l-0,-0.9l-3.6,-1.4Z" style="fill:#ffb450;fill-rule:nonzero;"/><path d="M39.9,4.5c0,0 -0.9,3.9 0.6,4.6c1.5,0.7 3.9,-0 3.9,-0c0,-0 -1.5,-4.4 -4.5,-4.6Z" style="fill:#ffd18d;fill-rule:nonzero;"/><path d="M48.1,13.8l-2.1,-0.2l0.5,2c0,-0 1.1,1 1.8,0.9c0.7,-0.1 1.6,-1.5 1.6,-1.5l0.2,-1.5l-2,0.3Z" style="fill:#ffb450;fill-rule:nonzero;"/><path d="M48.6,11.4l-2.8,2.2c0,0 1.4,1.3 2.1,1.4c0.7,0.1 2.1,-1.5 2.1,-1.5l-1.4,-2.1Z" style="fill:#ffd18d;fill-rule:nonzero;"/><path d="M6.8,12.7c3.3,-4.8 9.7,-11.5 20.2,-11.6c0.8,-0 0.9,1.1 0.2,1.3c-4.6,1.4 -12.4,4.6 -19.4,11.2c-0.5,0.5 -1.4,-0.2 -1,-0.9Z" style="fill:#ffdeb3;fill-rule:nonzero;"/><path d="M50.8,5.9l1.7,-0.9c-0,0 -0.5,3.7 -1.1,4.4c-0.6,0.7 -4.8,1.5 -4.8,1.5l-0,-1.5l4.2,-3.5Z" style="fill:#ffb450;fill-rule:nonzero;"/><path d="M46.5,9.4c0,0 1.1,-3.8 1.5,-4.1c1.5,-1.3 4.5,-0.3 4.5,-0.3c0,-0 -0.9,2.8 -1.5,3.4c-0.6,0.6 -4.5,1 -4.5,1Z" style="fill:#ffd18d;fill-rule:nonzero;"/><path d="M52.6,12.6l-0.1,0.9c0,0 0,1.1 0.1,1.4c0,0.3 0.4,0.4 0.7,0.3c0.2,-0.1 0.8,-0.6 0.8,-0.6l0,-0.3l-1.5,-1.7Z" style="fill:#ffb450;fill-rule:nonzero;"/><path d="M52.5,12.2c0,-0 -0.1,1.8 0.3,2.3c0.4,0.5 1.3,-0.3 1.3,-0.3c0,-0 -0.3,-2.1 -1.6,-2Z" style="fill:#ffd18d;fill-rule:nonzero;"/><path d="M46.1,6.1c0.6,0.2 0.8,-0.5 0.8,-0.9c0,-0.4 -0.7,-1.1 -0.7,-1.1c-1.3,0 -1.1,0.2 -1.1,0.8c-0.3,1 0.5,1.6 1,1.2Z" style="fill:#2b1400;fill-rule:nonzero;"/><path d="M46,6c0.6,0.2 0.8,-0.5 0.8,-0.9c0,-0.4 -0.7,-1.1 -0.7,-1.1c-1.3,0 -1.1,0.1 -1.1,0.8c-0.3,0.9 0.4,1.5 1,1.2Z" style="fill:#442300;fill-rule:nonzero;"/><g opacity="0.6"><path d="M15.7,13.8c-0.6,0.2 -1.1,0.4 -1.6,0.8c-0.2,0.2 -0.4,0.3 -0.6,0.6c-0.2,0.2 -0.4,0.4 -0.6,0.7c-0,-0.3 0.1,-0.6 0.3,-0.9c0.2,-0.3 0.4,-0.5 0.7,-0.7c0.3,-0.2 0.6,-0.3 0.9,-0.4c0.3,-0.2 0.6,-0.2 0.9,-0.1Z" style="fill:#fff;fill-rule:nonzero;"/></g><g opacity="0.6"><path d="M4.6,31.9c0.4,-0.6 1.1,-0.9 1.8,-0.9c0.4,-0 0.7,0.1 1,0.3c0.2,0.1 0.3,0.2 0.4,0.3c0.1,0.1 0.2,0.2 0.4,0.4c-0.6,-0.2 -1.2,-0.5 -1.8,-0.5c-0.6,-0.1 -1.2,0.1 -1.8,0.4Z" style="fill:#fff;fill-rule:nonzero;"/></g><g opacity="0.6"><path d="M24.8,43.5c-0.1,-0.6 0.3,-1.2 0.8,-1.5c0.3,-0.1 0.6,-0.2 0.9,-0.1c0.1,0 0.3,0.1 0.4,0.1c0.1,0.1 0.3,0.1 0.4,0.2c-0.6,0 -1.1,0 -1.5,0.2c-0.4,0.2 -0.7,0.6 -1,1.1Z" style="fill:#fff;fill-rule:nonzero;"/></g><g opacity="0.6"><path d="M44.6,31.5c-0.3,-0.7 -0.2,-1.6 0.3,-2.3c0.3,-0.3 0.6,-0.6 1.1,-0.7c0.2,-0.1 0.4,-0.1 0.6,-0.1c0.2,0 0.4,0 0.6,0.1c-0.4,0.1 -0.7,0.2 -1,0.4c-0.3,0.2 -0.6,0.4 -0.8,0.6c-0.5,0.5 -0.7,1.2 -0.8,2Z" style="fill:#fff;fill-rule:nonzero;"/></g><g opacity="0.6"><path d="M31.1,3c0.1,-0.2 0.3,-0.3 0.5,-0.4c0.2,-0.1 0.5,-0.1 0.7,0c0.2,0.1 0.4,0.2 0.6,0.3c0.2,0.1 0.3,0.3 0.4,0.5c-0.4,-0.1 -0.7,-0.3 -1.1,-0.3c-0.1,-0.1 -0.3,-0.1 -0.5,-0.1l-0.6,0Z" style="fill:#fff;fill-rule:nonzero;"/></g><path d="M21.4,29.7c-0.1,0.7 -0.4,1.6 -1.3,1.4c-1.2,0 -1.7,-0.6 -1.7,-1.7c-0.5,-0.3 0.7,-1.5 1.6,-1.7c0.9,0.2 1,1 1.4,2Z" style="fill:#ffbb69;fill-rule:nonzero;"/><path d="M35.2,34.8c0.7,0.7 1.4,1.5 1.1,2.2c-0.3,0.8 -1.2,1.2 -2,0.8c-1.2,0.1 -1.3,-1.5 -1.3,-2c0.5,-0.9 0.7,-1 2.2,-1Z" style="fill:#ffbb69;fill-rule:nonzero;"/><path d="M23.4,6.1c0.8,0.7 1.7,1.5 0.9,2.4c-0,1.1 -1.4,1.3 -1.7,0.9c-1.6,-0.3 -2,-1.7 -1.9,-2.3c0.1,-1.1 0.1,-1.1 2.7,-1Z" style="fill:#ffbb69;fill-rule:nonzero;"/><path d="M36.9,19.7c1.6,-0.1 2.1,1.3 1.3,2.9c-1.3,1.3 -2.8,1.5 -2.9,1.4c-0.9,0.1 -1.9,-1.1 -1.7,-2.3c0.6,-1.8 0.1,-1.9 3.3,-2Z" style="fill:#ffbb69;fill-rule:nonzero;"/><path d="M46.4,39.9c-0.2,-1.4 -0.8,-3 -0.4,-3.3c-0.2,-1.2 1.1,-2.3 3.1,-0.6c1.8,1.2 1.3,2.3 0.8,3.5c-0.8,1 -4.2,1 -3.5,0.4Z" style="fill:#ffbb69;fill-rule:nonzero;"/><path d="M8.6,22.2c-0.2,1.8 -0.8,2.6 -2,2.4c-1.2,-0.1 -2.3,-1.1 -2.2,-2.3c-0.5,-0.6 0.8,-2.7 1.7,-2.2c1.5,-0.1 1.5,1.3 2.5,2.1Z" style="fill:#ffbb69;fill-rule:nonzero;"/><path d="M16.3,40.2c-0.3,1.6 -1,2.3 -2.7,2.5c-1,0.3 -2.2,-0.7 -1.5,-1.9c-0.5,-1.1 0.6,-2.7 1.7,-2.3c1.1,-0.6 0.9,0.9 2.5,1.7Z" style="fill:#ffbb69;fill-rule:nonzero;"/><path d="M33.8,49.7c3.7,-1.8 9.6,-4.9 12.5,-8.2c0.5,-0.6 -0.2,-1.5 -0.9,-1.1c-3.3,1.8 -8.9,5.2 -12.4,8.2c-0.5,0.5 0.1,1.4 0.8,1.1Z" style="fill:#ffdeb3;fill-rule:nonzero;"/></svg>