<?xml version="1.0" encoding="UTF-8" standalone="no"?><!DOCTYPE svg PUBLIC "-//W3C//DTD SVG 1.1//EN" "http://www.w3.org/Graphics/SVG/1.1/DTD/svg11.dtd"><svg width="100%" height="100%" viewBox="0 0 52 20" version="1.1" xmlns="http://www.w3.org/2000/svg" xmlns:xlink="http://www.w3.org/1999/xlink" xml:space="preserve" xmlns:serif="http://www.serif.com/" style="fill-rule:evenodd;clip-rule:evenodd;stroke-linejoin:round;stroke-miterlimit:2;"><g id="box"><g><g><g><rect x="24.1" y="7.8" width="2.3" height="12.1" style="fill:#2a255a;fill-rule:nonzero;"/><path d="M29.7,11.9l0,4c0,0.7 0.1,1.2 0.4,1.5c0.3,0.3 0.7,0.4 1.3,0.4c0.6,0 1,-0.2 1.3,-0.4c0.3,-0.3 0.4,-0.8 0.4,-1.5l0,-4l2.3,0l0,4c0,1.4 -0.3,2.3 -1,3c-0.7,0.6 -1.7,1 -3,1c-1.4,0 -2.4,-0.3 -3.1,-1c-0.7,-0.6 -1,-1.6 -1,-3l0,-4l2.4,0Z" style="fill:#2a255a;fill-rule:nonzero;"/><path d="M13.4,19.9l0,-4c0,-0.7 -0.1,-1.2 -0.4,-1.5c-0.3,-0.3 -0.7,-0.4 -1.3,-0.4c-0.6,-0 -1,0.1 -1.3,0.4c-0.3,0.3 -0.4,0.8 -0.4,1.5l0,4l-2.3,-0l0,-4c0,-1.4 0.3,-2.3 1,-3c0.6,-0.6 1.7,-1 3,-1c1.4,-0 2.4,0.3 3.1,1c0.7,0.6 1,1.6 1,3l0,4l-2.4,-0Z" style="fill:#2a255a;fill-rule:nonzero;"/><path d="M23.1,14.2l-2.4,-0c-0.7,-0 -1.2,0.1 -1.5,0.4c-0.3,0.3 -0.4,0.7 -0.4,1.3c0,0.6 0.1,1 0.4,1.3c0.3,0.3 0.8,0.4 1.5,0.4l2.4,-0l0,2.3l-2.4,-0c-1.4,-0 -2.3,-0.3 -3,-1c-0.6,-0.6 -1,-1.7 -1,-3c0,-1.4 0.3,-2.4 1,-3.1c0.6,-0.7 1.6,-1 3,-1l2.4,-0l0,2.4Z" style="fill:#2a255a;fill-rule:nonzero;"/><path d="M42.5,7.8l0,4.1l-2.2,0c-1.4,0 -2.4,0.3 -3,1c-0.6,0.7 -1,1.7 -1,3.1c0,1.4 0.3,2.4 1,3c0.6,0.6 1.6,1 3,1l4.5,0l0,-12.2l-2.3,0Zm-2.2,9.8c-0.7,0 -1.2,-0.1 -1.5,-0.4c-0.3,-0.3 -0.4,-0.7 -0.4,-1.3c0,-0.6 0.1,-1.1 0.4,-1.3c0.3,-0.3 0.8,-0.4 1.5,-0.4l2.2,0l0,3.5c0,-0.1 -2.2,-0.1 -2.2,-0.1Z" style="fill:#2a255a;fill-rule:nonzero;"/><path d="M49.6,14.2l2.4,-0l0,-2.3l-2.4,-0c-1.4,-0 -2.4,0.3 -3,1c-0.6,0.7 -1,1.7 -1,3.1c0,1.4 0.3,2.4 1,3c0.6,0.6 1.6,1 3,1l2.4,0l0,-2.3l-2.4,0c-0.7,0 -1.2,-0.1 -1.5,-0.4c-0.1,-0.1 -0.1,-0.1 -0.1,-0.2l4,0l0,-2.3l-4,0c0.1,-0.1 0.1,-0.1 0.2,-0.2c0.2,-0.3 0.7,-0.4 1.4,-0.4Z" style="fill:#2a255a;fill-rule:nonzero;"/><rect x="4.2" y="11.9" width="2.3" height="8" style="fill:#2a255a;"/></g></g><g><path d="M7.2,9.1l1.9,-1.9c-0.6,-0.4 -1.1,-0.8 -1.6,-1.3c-0.1,0 -0.2,-0.1 -0.3,-0.2c-0.2,0.2 -0.4,0.5 -0.7,0.8c-0.3,0.2 -0.5,0.5 -0.8,0.7c0.1,0.1 0.2,0.2 0.3,0.3c0.4,0.5 0.8,1 1.2,1.6Z" style="fill:#2b3082;fill-rule:nonzero;"/><path d="M7.2,1.6c-0.4,0.5 -0.8,1 -1.2,1.5c-0.1,0.1 -0.2,0.2 -0.3,0.3c0.3,0.3 0.6,0.5 0.8,0.8c0.3,0.2 0.5,0.5 0.8,0.7c0.1,-0.1 0.2,-0.2 0.3,-0.3c0.5,-0.4 1,-0.9 1.6,-1.2c-0.1,-0 -2,-1.8 -2,-1.8Z" style="fill:#37a7df;fill-rule:nonzero;"/><path d="M6.1,6c0.2,-0.2 0.5,-0.5 0.8,-0.7c-0.3,-0.2 -0.6,-0.5 -0.8,-0.7c-0.3,-0.3 -0.5,-0.5 -0.7,-0.8l-1.5,1.5c0.2,0.2 0.5,0.5 0.7,0.7c0.2,0.2 0.5,0.5 0.7,0.8c0.3,-0.3 0.5,-0.5 0.8,-0.8Z" style="fill:#1d70b7;fill-rule:nonzero;"/><path d="M4.2,4.2c0.3,-0.3 0.5,-0.5 0.8,-0.8c-0.1,-0.1 -0.2,-0.2 -0.3,-0.3c-0.4,-0.5 -0.9,-1 -1.2,-1.6l-1.9,1.9c0.6,0.4 1.1,0.8 1.6,1.2c0.1,0.1 0.2,0.2 0.3,0.3c0.2,-0.2 0.4,-0.5 0.7,-0.7Z" style="fill:#37a7df;fill-rule:nonzero;"/><path d="M3.5,9.1c0.4,-0.6 0.8,-1.1 1.2,-1.6c0.1,-0.1 0.2,-0.2 0.3,-0.3c-0.3,-0.2 -0.5,-0.5 -0.8,-0.8c-0.3,-0.2 -0.5,-0.5 -0.8,-0.7c-0,0.1 -0.1,0.1 -0.2,0.2c-0.5,0.4 -1,0.9 -1.6,1.2l1.9,2Z" style="fill:#2b3082;fill-rule:nonzero;"/><path d="M10.3,4.6l-1.2,-1.2c-0.4,0.6 -0.8,1.1 -1.2,1.6c-0.1,0.1 -0.2,0.2 -0.3,0.3c0.1,0.1 0.2,0.2 0.3,0.3c0.4,0.5 0.9,1 1.2,1.6l1.2,-1.2c0.4,-0.4 0.4,-1 0,-1.4Z" style="fill:#1d70b7;fill-rule:nonzero;"/><path d="M5.7,7.8c-0.1,-0.1 -0.2,-0.2 -0.3,-0.2c-0.1,0 -0.3,0.1 -0.4,0.2c-0.5,0.5 -1,0.9 -1.5,1.3l1.2,1.2c0.4,0.4 1,0.4 1.4,0l1.2,-1.2c-0.6,-0.4 -1.1,-0.8 -1.6,-1.3Z" style="fill:#2a255a;fill-rule:nonzero;"/><path d="M2.8,5.6c0.1,-0.1 0.2,-0.2 0.3,-0.3c-0.1,-0.1 -0.2,-0.2 -0.3,-0.3c-0.4,-0.5 -0.8,-1 -1.2,-1.6l-1.2,1.2c-0.4,0.4 -0.4,1 -0,1.4l1.2,1.2c0.4,-0.6 0.8,-1.1 1.2,-1.6Z" style="fill:#1d70b7;fill-rule:nonzero;"/><path d="M5,2.8c0.1,0.1 0.3,0.2 0.4,0.3c0.1,-0.1 0.2,-0.2 0.3,-0.3c0.5,-0.4 1,-0.9 1.6,-1.2l-1.3,-1.2c-0.3,-0.4 -0.9,-0.4 -1.3,-0l-1.2,1.2c0.5,0.3 1,0.8 1.5,1.2Z" style="fill:#82ccec;fill-rule:nonzero;"/></g></g></g></svg>